<!-- icon666.com - MILLIONS vector ICONS FREE --><svg viewBox="-93 0 512 512.001" xmlns="http://www.w3.org/2000/svg"><path d="m309.613281 504.5h-292.84375c-5.117187 0-9.269531-4.148438-9.269531-9.269531v-328.988281c0-5.121094 4.148438-9.269532 9.269531-9.269532h292.847657c5.117187 0 9.265624 4.148438 9.265624 9.269532v328.988281c0 5.121093-4.148437 9.269531-9.269531 9.269531zm0 0" fill="#d5f3f7"></path><path d="m318.882812 166.242188v328.988281c0 5.125-4.152343 9.265625-9.269531 9.265625h-27.804687c5.117187 0 9.269531-4.140625 9.269531-9.265625v-328.988281c0-5.117188-4.152344-9.269532-9.269531-9.269532h27.804687c5.117188 0 9.269531 4.152344 9.269531 9.269532zm0 0" fill="#a9e8f0"></path><path d="m281.816406 450.296875h-237.246094c-5.121093 0-9.269531-4.152344-9.269531-9.269531v-229.375c0-5.117188 4.148438-9.265625 9.269531-9.265625h237.246094c5.117188 0 9.265625 4.148437 9.265625 9.265625v229.375c0 5.117187-4.148437 9.269531-9.265625 9.269531zm0 0" fill="#ff9a1b"></path><path d="m291.082031 211.652344v229.371094c0 5.117187-4.152343 9.269531-9.265625 9.269531h-19.40625c5.117188 0 9.261719-4.152344 9.261719-9.269531v-229.371094c0-5.117188-4.144531-9.265625-9.261719-9.265625h19.40625c5.113282 0 9.265625 4.148437 9.265625 9.265625zm0 0" fill="#f47e14"></path><path d="m210.203125 201.933594-.449219.453125-65.300781 65.296875c-2.992187 2.988281-7.84375 2.988281-10.832031 0l-65.75-65.75c-2.992188-2.996094-2.992188-7.84375 0-10.832032l65.75-65.75c2.988281-2.996093 7.839844-2.996093 10.832031 0l65.75 65.75c2.988281 2.988282 2.988281 7.835938 0 10.832032zm0 0" fill="#ffe8ca"></path><path d="m209.753906 202.386719-65.300781 65.296875c-2.992187 2.988281-7.84375 2.988281-10.832031 0l-65.296875-65.296875zm0 0" fill="#ffce8b"></path><path d="m210.203125 201.933594-.449219.453125h-25.957031l13.429687-13.429688c2.996094-2.988281 2.996094-7.839843 0-10.832031l12.976563 12.976562c2.988281 2.988282 2.988281 7.835938 0 10.832032zm0 0" fill="#ffdbaa"></path><path d="m209.753906 202.386719-65.300781 65.296875c-2.992187 2.988281-7.84375 2.988281-10.832031 0l-12.976563-12.976563c2.996094 2.992188 7.84375 2.992188 10.832031 0l52.320313-52.320312zm0 0" fill="#ffc26d"></path><path d="m245.828125 388.320312h-80.339844c-4.230469 0-7.660156-3.429687-7.660156-7.660156v-80.339844c0-4.230468 3.429687-7.660156 7.660156-7.660156h80.339844c4.230469 0 7.660156 3.433594 7.660156 7.660156v80.339844c0 4.234375-3.429687 7.660156-7.660156 7.660156zm0 0" fill="#ffce8b"></path><path d="m253.484375 300.324219v80.335937c0 4.234375-3.421875 7.660156-7.660156 7.660156h-18.789063c4.226563 0 7.660156-3.421874 7.660156-7.660156v-80.335937c0-4.230469-3.433593-7.660157-7.660156-7.660157h18.789063c4.238281 0 7.660156 3.433594 7.660156 7.660157zm0 0" fill="#ffc26d"></path><path d="m318.882812 450.300781v44.929688c0 5.125-4.152343 9.265625-9.269531 9.265625h-292.84375c-5.117187 0-9.269531-4.140625-9.269531-9.265625v-44.929688zm0 0" fill="#a9e8f0"></path><path d="m318.882812 450.300781v44.929688c0 5.125-4.152343 9.265625-9.269531 9.265625h-27.804687c5.117187 0 9.269531-4.140625 9.269531-9.265625v-44.929688zm0 0" fill="#70dae7"></path><path d="m215.707031 125.746094c-6.640625-20.703125-22.683593-37.195313-43.109375-44.4375-2.398437-.851563-2.398437-4.308594 0-5.160156 20.425782-7.242188 36.46875-23.734376 43.109375-44.4375.824219-2.570313 4.410157-2.570313 5.234375 0 6.640625 20.703124 22.683594 37.195312 43.105469 44.4375 2.402344.851562 2.402344 4.308593 0 5.160156-20.421875 7.242187-36.464844 23.734375-43.105469 44.4375-.828125 2.570312-4.410156 2.570312-5.234375 0zm0 0" fill="#ffc26d"></path><path d="m118.066406 77.421875c-4.839844-15.085937-16.527344-27.101563-31.410156-32.378906-1.75-.621094-1.75-3.140625 0-3.761719 14.882812-5.277344 26.570312-17.292969 31.410156-32.378906.601563-1.871094 3.210938-1.871094 3.8125 0 4.835938 15.085937 16.527344 27.101562 31.410156 32.378906 1.75.621094 1.75 3.140625 0 3.761719-14.882812 5.277343-26.574218 17.292969-31.410156 32.378906-.601562 1.875-3.210937 1.875-3.8125 0zm0 0" fill="#ffc26d"></path><path d="m150.328125 300.320312v80.339844c0 8.359375 6.800781 15.160156 15.160156 15.160156h18.007813c4.140625 0 7.5-3.355468 7.5-7.5 0-4.140624-3.359375-7.5-7.5-7.5h-18.007813c-.085937 0-.160156-.070312-.160156-.160156v-80.339844c0-.085937.074219-.160156.160156-.160156h80.339844c.089844 0 .160156.074219.160156.160156v80.339844c0 .089844-.070312.160156-.160156.160156h-26.9375c-4.144531 0-7.5 3.359376-7.5 7.5 0 4.144532 3.355469 7.5 7.5 7.5h26.9375c8.359375 0 15.160156-6.800781 15.160156-15.160156v-80.339844c0-8.355468-6.800781-15.160156-15.160156-15.160156h-80.339844c-8.359375 0-15.160156 6.804688-15.160156 15.160156zm0 0"></path><path d="m318.882812 229.804688c4.144532 0 7.5-3.359376 7.5-7.5v-56.0625c0-9.246094-7.519531-16.769532-16.769531-16.769532h-130.429687l-29.425782-29.425781c-2.863281-2.863281-6.671874-4.441406-10.722656-4.441406-4.046875 0-7.855468 1.578125-10.71875 4.441406l-29.425781 29.425781h-82.121094c-9.246093 0-16.769531 7.523438-16.769531 16.769532v328.992187c0 9.246094 7.523438 16.765625 16.769531 16.765625h292.847657c9.246093 0 16.765624-7.519531 16.765624-16.765625v-237.539063c0-4.140624-3.355468-7.5-7.5-7.5-4.140624 0-7.5 3.359376-7.5 7.5v185.101563h-12.894531c.058594-.582031.09375-1.171875.09375-1.769531v-229.375c0-9.246094-7.519531-16.769532-16.765625-16.769532h-61.972656c-.355469-3.320312-1.796875-6.546874-4.335938-9.089843l-21.324218-21.320313h115.433594c.972656 0 1.765624.792969 1.765624 1.769532v56.0625c0 4.140624 3.359376 7.5 7.5 7.5zm-179.957031-99.152344c.023438-.023438.066407-.039063.109375-.039063.042969 0 .089844.015625.117188.039063l18.816406 18.820312h-37.863281zm172.457031 364.578125c0 .976562-.792968 1.769531-1.769531 1.769531h-292.84375c-.976562 0-1.769531-.792969-1.769531-1.769531v-37.4375h296.382812zm-27.800781-283.578125v229.375c0 .976562-.792969 1.769531-1.765625 1.769531h-237.246094c-.976562 0-1.769531-.792969-1.769531-1.769531v-38.332032c0-4.140624-3.359375-7.5-7.5-7.5s-7.5 3.359376-7.5 7.5v38.332032c0 .597656.035157 1.1875.09375 1.769531h-12.894531v-276.554687c0-.976563.792969-1.769532 1.765625-1.769532h67.125l-21.320313 21.324219c-2.542968 2.539063-3.984374 5.765625-4.339843 9.085937h-13.660157c-9.246093 0-16.769531 7.523438-16.769531 16.769532v155.648437c0 4.144531 3.359375 7.5 7.5 7.5s7.5-3.355469 7.5-7.5v-155.648437c0-.976563.792969-1.769532 1.769531-1.769532h20.644532l63.101562 63.101563c2.863282 2.863281 6.671875 4.441406 10.71875 4.441406 4.050782 0 7.859375-1.578125 10.722656-4.441406l63.097657-63.101563h68.960937c.972656.003907 1.765625.796876 1.765625 1.769532zm-197.152343-1.765625h105.210937l-52.492187 52.492187c-.050782.050782-.171876.054688-.226563 0zm116.953124-15h-128.691406l30.414063-30.414063h67.863281zm0 0"></path><path d="m83.523438 289.78125c-4.144532 0-7.5 3.402344-7.5 7.546875 0 4.140625 3.355468 7.5 7.5 7.5 4.140624 0 7.5-3.359375 7.5-7.5v-.089844c0-4.140625-3.359376-7.457031-7.5-7.457031zm0 0"></path><path d="m230.601562 251.246094c4.144532 0 7.5-3.355469 7.5-7.5v-.085938c0-4.144531-3.355468-7.457031-7.5-7.457031-4.140624 0-7.5 3.402344-7.5 7.542969 0 4.144531 3.359376 7.5 7.5 7.5zm0 0"></path><path d="m75.09375 314.679688c-4.140625 0-7.5 3.402343-7.5 7.542968 0 4.144532 3.359375 7.5 7.5 7.5 4.144531 0 7.5-3.355468 7.5-7.5v-.085937c0-4.144531-3.355469-7.457031-7.5-7.457031zm0 0"></path><path d="m120.644531 361.332031c-4.140625 0-7.5 3.402344-7.5 7.542969 0 4.144531 3.359375 7.5 7.5 7.5 4.144531 0 7.5-3.355469 7.5-7.5v-.085938c0-4.144531-3.355469-7.457031-7.5-7.457031zm0 0"></path><path d="m170.089844 88.378906c18.199218 6.453125 32.582031 21.277344 38.476562 39.65625 1.367188 4.273438 5.289063 7.140625 9.757813 7.140625 4.464843 0 8.386719-2.867187 9.757812-7.136719 5.894531-18.382812 20.277344-33.207031 38.472657-39.660156 4.128906-1.464844 6.792968-5.25 6.792968-9.648437 0-4.398438-2.664062-8.1875-6.792968-9.648438-18.195313-6.453125-32.578126-21.28125-38.472657-39.660156-1.371093-4.269531-5.292969-7.136719-9.757812-7.136719-4.46875 0-8.390625 2.867188-9.757813 7.136719-5.894531 18.378906-20.277344 33.207031-38.476562 39.660156-4.125 1.464844-6.792969 5.25-6.792969 9.648438 0 4.398437 2.667969 8.183593 6.792969 9.648437zm48.234375-43.332031c7.222656 14.320313 18.824219 26.167969 33.007812 33.683594-14.183593 7.515625-25.785156 19.359375-33.007812 33.683593-7.226563-14.324218-18.828125-26.167968-33.007813-33.683593 14.179688-7.515625 25.78125-19.363281 33.007813-33.683594zm0 0"></path><path d="m84.148438 52.109375c12.664062 4.492187 22.675781 14.8125 26.777343 27.605469 1.269531 3.953125 4.90625 6.613281 9.046875 6.613281 4.144532 0 7.777344-2.660156 9.046875-6.613281 4.101563-12.792969 14.113281-23.113282 26.773438-27.601563 3.773437-1.339843 6.308593-4.933593 6.308593-8.949219 0-4.015624-2.535156-7.613281-6.304687-8.949218-12.664063-4.488282-22.671875-14.808594-26.777344-27.601563-1.269531-3.957031-4.90625-6.613281-9.046875-6.613281s-7.777344 2.65625-9.046875 6.613281c-4.101562 12.792969-14.113281 23.109375-26.773437 27.601563-3.773438 1.335937-6.308594 4.933594-6.308594 8.949218 0 4.015626 2.535156 7.609376 6.304688 8.945313zm35.824218-29.246094c4.875 8.277344 11.75 15.277344 19.949219 20.300781-8.195313 5.019532-15.074219 12.019532-19.949219 20.300782-4.875-8.277344-11.753906-15.277344-19.945312-20.300782 8.191406-5.023437 15.070312-12.023437 19.945312-20.300781zm0 0"></path></svg>